<svg xmlns="http://www.w3.org/2000/svg" width="101" height="38" viewBox="0 0 101 38" fill="none"><path d="M8 6H24L16 22H0L8 6Z" fill="#614CE1"></path><path opacity="0.4" d="M10 16H26L18 32H2L10 16Z" fill="#614CE1"></path><path d="M36.0266 6.6H50.2986V10.44H40.2506V15.848H49.6586V19.688H40.2506V29H36.0266V6.6ZM56.1359 6.6V29H52.1039V6.6H56.1359ZM74.5129 29H70.5449V26.632H70.2249C69.5849 27.976 68.2409 29.256 65.3289 29.256C61.6169 29.256 59.1529 26.536 59.1529 22.6V13.128H63.1849V22.408C63.1849 24.808 64.4009 25.992 66.5769 25.992C69.0409 25.992 70.4809 24.264 70.4809 21.32V13.128H74.5129V29ZM76.1689 13.128H80.8409L84.5849 18.6H84.9049L88.6489 13.128H93.3209L87.7529 21L93.3849 29H88.6169L84.9049 23.464H84.5849L80.8729 29H76.1049L81.7369 21L76.1689 13.128ZM94.1644 8.52C94.1644 6.888 95.4124 5.768 97.0124 5.768C98.6124 5.768 99.8604 6.888 99.8604 8.52C99.8604 10.152 98.6124 11.272 97.0124 11.272C95.4124 11.272 94.1644 10.152 94.1644 8.52ZM99.0284 13.128V29H94.9964V13.128H99.0284Z" fill="#BCBFDB"></path><path d="M36.0266 6.6H50.2986V10.44H40.2506V15.848H49.6586V19.688H40.2506V29H36.0266V6.6ZM56.1359 6.6V29H52.1039V6.6H56.1359ZM74.5129 29H70.5449V26.632H70.2249C69.5849 27.976 68.2409 29.256 65.3289 29.256C61.6169 29.256 59.1529 26.536 59.1529 22.6V13.128H63.1849V22.408C63.1849 24.808 64.4009 25.992 66.5769 25.992C69.0409 25.992 70.4809 24.264 70.4809 21.32V13.128H74.5129V29ZM76.1689 13.128H80.8409L84.5849 18.6H84.9049L88.6489 13.128H93.3209L87.7529 21L93.3849 29H88.6169L84.9049 23.464H84.5849L80.8729 29H76.1049L81.7369 21L76.1689 13.128ZM94.1644 8.52C94.1644 6.888 95.4124 5.768 97.0124 5.768C98.6124 5.768 99.8604 6.888 99.8604 8.52C99.8604 10.152 98.6124 11.272 97.0124 11.272C95.4124 11.272 94.1644 10.152 94.1644 8.52ZM99.0284 13.128V29H94.9964V13.128H99.0284Z" fill="black" fill-opacity="0.8"></path></svg>